version = 1
nColumns = 19
nRows = 22
inDegrees = yes
endheader 
time	r_ground_force_vx	r_ground_force_vy	r_ground_force_vz	r_ground_force_px	r_ground_force_py	r_ground_force_pz	l_ground_force_vx	l_ground_force_vy	l_ground_force_vz	l_ground_force_px	l_ground_force_py	l_ground_force_pz	r_ground_torque_x	r_ground_torque_y	r_ground_torque_z	l_ground_torque_x	l_ground_torque_y	l_ground_torque_z	
          0.00000000	       -470.39303676	        447.41038406	         82.24265692	          0.20349394	          0.00000000	          0.03455802	          0.00000000	          0.00000000	          0.00000000	          0.00000000	          0.00000000	          0.00000000	          0.00000000	         -2.12713261	          0.00000000	          0.00000000	          0.00000000	          0.00000000	
          0.00087960	       -470.39303676	        447.41038406	         82.24265692	          0.20349394	          0.00000000	          0.03455802	          0.00000000	          0.00000000	          0.00000000	          0.00000000	          0.00000000	          0.00000000	          0.00000000	         -2.12713261	          0.00000000	          0.00000000	          0.00000000	          0.00000000	
          0.00365879	       -331.38502030	        562.63657060	         50.81757289	          0.18734186	          0.00000000	          0.03677956	          0.00000000	          0.00000000	          0.00000000	          0.00000000	          0.00000000	          0.00000000	          0.00000000	         -5.59210137	          0.00000000	          0.00000000	          0.00000000	          0.00000000	
          0.00567299	       -133.44234310	        625.14199245	         27.35041544	          0.17182222	          0.00000000	          0.03895214	          0.00000000	          0.00000000	          0.00000000	          0.00000000	          0.00000000	          0.00000000	          0.00000000	         -6.04290331	          0.00000000	          0.00000000	          0.00000000	          0.00000000	
          0.00655259	       -137.11650487	        670.46444686	         24.42366629	          0.16661171	          0.00000000	          0.03973896	          0.00000000	          0.00000000	          0.00000000	          0.00000000	          0.00000000	          0.00000000	          0.00000000	         -6.62354368	          0.00000000	          0.00000000	          0.00000000	          0.00000000	
          0.00933178	       -134.39972763	        859.05586576	         11.80578247	          0.15798562	          0.00000000	          0.04136208	          0.00000000	          0.00000000	          0.00000000	          0.00000000	          0.00000000	          0.00000000	          0.00000000	         -6.74123764	          0.00000000	          0.00000000	          0.00000000	          0.00000000	
          0.01134598	       -139.73212801	        998.30441875	          9.26386138	          0.15380938	          0.00000000	          0.04225753	          0.00000000	          0.00000000	          0.00000000	          0.00000000	          0.00000000	          0.00000000	          0.00000000	         -5.59752646	          0.00000000	          0.00000000	          0.00000000	          0.00000000	
          0.01222559	       -141.65455699	       1050.62793025	          9.15608859	          0.15175881	          0.00000000	          0.04264887	          0.00000000	          0.00000000	          0.00000000	          0.00000000	          0.00000000	          0.00000000	          0.00000000	         -5.06682233	          0.00000000	          0.00000000	          0.00000000	          0.00000000	
          0.01500477	       -132.42381511	       1194.43833024	          6.00609646	          0.14670110	          0.00000000	          0.04360205	          0.00000000	          0.00000000	          0.00000000	          0.00000000	          0.00000000	          0.00000000	          0.00000000	         -4.02715110	          0.00000000	          0.00000000	          0.00000000	          0.00000000	
          0.01701898	       -122.18085369	       1276.62837772	          3.40901429	          0.14430712	          0.00000000	          0.04406326	          0.00000000	          0.00000000	          0.00000000	          0.00000000	          0.00000000	          0.00000000	          0.00000000	         -3.73101476	          0.00000000	          0.00000000	          0.00000000	          0.00000000	
          0.01789858	       -117.86246209	       1307.24145075	          2.47263153	          0.14362686	          0.00000000	          0.04420793	          0.00000000	          0.00000000	          0.00000000	          0.00000000	          0.00000000	          0.00000000	          0.00000000	         -3.68774339	          0.00000000	          0.00000000	          0.00000000	          0.00000000	
          0.02067777	       -107.03939500	       1387.93559607	         -0.48946952	          0.14319402	          0.00000000	          0.04442921	          0.00000000	          0.00000000	          0.00000000	          0.00000000	          0.00000000	          0.00000000	          0.00000000	         -3.96872321	          0.00000000	          0.00000000	          0.00000000	          0.00000000	
          0.02269197	       -104.06005962	       1430.74055101	         -1.57835910	          0.14408361	          0.00000000	          0.04443652	          0.00000000	          0.00000000	          0.00000000	          0.00000000	          0.00000000	          0.00000000	          0.00000000	         -4.39783271	          0.00000000	          0.00000000	          0.00000000	          0.00000000	
          0.02357157	       -103.20902175	       1445.86436565	         -1.83036357	          0.14472861	          0.00000000	          0.04441054	          0.00000000	          0.00000000	          0.00000000	          0.00000000	          0.00000000	          0.00000000	          0.00000000	         -4.62294121	          0.00000000	          0.00000000	          0.00000000	          0.00000000	
          0.02635076	       -103.41647796	       1486.37095061	         -2.05216402	          0.14790784	          0.00000000	          0.04420789	          0.00000000	          0.00000000	          0.00000000	          0.00000000	          0.00000000	          0.00000000	          0.00000000	         -5.45258990	          0.00000000	          0.00000000	          0.00000000	          0.00000000	
          0.02836496	       -106.75123602	       1509.08839394	         -1.44497927	          0.15095218	          0.00000000	          0.04399421	          0.00000000	          0.00000000	          0.00000000	          0.00000000	          0.00000000	          0.00000000	          0.00000000	         -6.08084554	          0.00000000	          0.00000000	          0.00000000	          0.00000000	
          0.02924456	       -108.90951649	       1517.22129970	         -0.99105963	          0.15238904	          0.00000000	          0.04389513	          0.00000000	          0.00000000	          0.00000000	          0.00000000	          0.00000000	          0.00000000	          0.00000000	         -6.34204937	          0.00000000	          0.00000000	          0.00000000	          0.00000000	
          0.03202375	       -115.86331093	       1535.17751753	          0.32500312	          0.15705681	          0.00000000	          0.04359301	          0.00000000	          0.00000000	          0.00000000	          0.00000000	          0.00000000	          0.00000000	          0.00000000	         -7.15659251	          0.00000000	          0.00000000	          0.00000000	          0.00000000	
          0.03403795	       -120.38267856	       1542.74770334	          1.00024560	          0.16046974	          0.00000000	          0.04339632	          0.00000000	          0.00000000	          0.00000000	          0.00000000	          0.00000000	          0.00000000	          0.00000000	         -7.73007388	          0.00000000	          0.00000000	          0.00000000	          0.00000000	
          0.03491755	       -121.87346416	       1545.24393474	          1.15340782	          0.16195728	          0.00000000	          0.04331764	          0.00000000	          0.00000000	          0.00000000	          0.00000000	          0.00000000	          0.00000000	          0.00000000	         -7.97831498	          0.00000000	          0.00000000	          0.00000000	          0.00000000	
          0.03769674	       -125.08260819	       1551.08914014	          1.37938925	          0.16663204	          0.00000000	          0.04310055	          0.00000000	          0.00000000	          0.00000000	          0.00000000	          0.00000000	          0.00000000	          0.00000000	         -8.70384751	          0.00000000	          0.00000000	          0.00000000	          0.00000000	
          0.03971094	       -126.13735931	       1553.80158738	          1.29853932	          0.16995478	          0.00000000	          0.04297788	          0.00000000	          0.00000000	          0.00000000	          0.00000000	          0.00000000	          0.00000000	          0.00000000	         -9.16796537	          0.00000000	          0.00000000	          0.00000000	          0.00000000	
